# AST/ASF file generated using VICON BodyLanguage
# -----------------------------------------------
:version 1.10
:name VICON
:units
  mass 1.0
  length 0.45
  angle deg
:documentation
   .ast/.asf automatically generated from VICON data using
   VICON BodyBuilder and BodyLanguage model FoxedUp or BRILLIANT.MOD
:root
   order TX TY TZ RX RY RZ
   axis XYZ
   position 0 0 0  
   orientation 0 0 0 
:bonedata
  begin
     id 1 
     name lhipjoint
     direction 0.635376 -0.686425 0.353719 
     length 2.47244 
     axis 0 0 0  XYZ
  end
  begin
     id 2 
     name lfemur
     direction 0.34202 -0.939693 0  
     length 7.25268  
     axis 0 0 20  XYZ
    dof rx ry rz
    limits (-160.0 20.0)
           (-70.0 70.0)
           (-60.0 70.0)
  end
  begin
     id 3 
     name ltibia
     direction 0.34202 -0.939693 0   
     length 7.6767   
     axis 0 0 20   XYZ
    dof rx
    limits (-10.0 170.0)
  end
  begin
     id 4 
     name lfoot
     direction 0.0803374 -0.220725 0.972022   
     length 2.22945   
     axis -90 7.62852e-016 20   XYZ
    dof rx rz
    limits (-45.0 90.0)
           (-70.0 20.0)
  end
  begin
     id 5 
     name ltoes
     direction 1.53579e-011 -4.21994e-011 1   
     length 1.11848   
     axis -90 7.62852e-016 20   XYZ
    dof rx
    limits (-90.0 20.0)
  end
  begin
     id 6 
     name rhipjoint
     direction -0.664428 -0.664335 0.342336   
     length 2.55466  
     axis 0 0 0  XYZ 
  end
  begin
     id 7 
     name rfemur
     direction -0.34202 -0.939693 0   
     length 6.83172   
     axis 0 0 -20   XYZ
    dof rx ry rz
    limits (-160.0 20.0)
           (-70.0 70.0)
           (-70.0 60.0)
  end
  begin
     id 8 
     name rtibia
     direction -0.34202 -0.939693 0   
     length 7.62692   
     axis 0 0 -20   XYZ
    dof rx
    limits (-10.0 170.0)
 end
 begin
     id 9 
     name rfoot
     direction -0.0949276 -0.260811 0.960711   
     length 2.19684  
     axis -90 -7.62852e-016 -20   XYZ
    dof rx rz
    limits (-45.0 90.0)
           (-20.0 70.0)
  end
  begin
     id 10 
     name rtoes
     direction -1.53543e-011 -4.2183e-011 1   
     length 1.09848   
     axis -90 -7.62852e-016 -20   XYZ
    dof rx
    limits (-90.0 20.0)
  end
  begin
     id 11 
     name lowerback
     direction 0.0118782 0.999815 -0.0151555   
     length 2.15772   
     axis 0 0 0   XYZ
    dof rx ry rz
    limits (-20.0 45.0)
           (-30.0 30.0)
           (-30.0 30.0)
  end
  begin
     id 12 
     name upperback
     direction 0.00130825 0.999065 0.0432113   
     length 2.14863   
     axis 0 0 0   XYZ
    dof rx ry rz
    limits (-20.0 45.0)
           (-30.0 30.0)
           (-30.0 30.0)
  end
  begin
     id 13 
     name thorax
     direction -0.00347005 0.998773 0.0494011   
     length 2.14936   
     axis 0 0 0   XYZ
    dof rx ry rz
    limits (-20.0 45.0)
           (-30.0 30.0)
           (-30.0 30.0)
  end
  begin
     id 14 
     name lowerneck
     direction -0.0262159 0.99424 0.103921   
     length 1.69373   
     axis 0 0 0   XYZ
    dof rx ry rz
    limits (-20.0 45.0)
           (-30.0 30.0)
           (-30.0 30.0)
  end
  begin
     id 15 
     name upperneck
     direction 0.0353511 0.977394 -0.20845   
     length 1.70857   
     axis 0 0 0   XYZ
    dof rx ry rz
    limits (-20.0 45.0)
           (-30.0 30.0)
           (-30.0 30.0)
  end
  begin
     id 16
     name head
     direction 0.0139214 0.996594 -0.0812836  
     length 1.72777  
     axis 0 0 0   XYZ
    dof rx ry rz
    limits (-20.0 45.0)
           (-30.0 30.0)
           (-30.0 30.0)
  end
  begin
     id 17 
     name lclavicle
     direction 0.841247 0.537205 -0.0609508  
     length 3.55371  
     axis 0 0 0   XYZ
    dof ry rz
    limits (-20.0 10.0)
           (0.0 20.0)
  end
  begin
     id 18 
     name lhumerus
     direction 1 -4.48964e-011 1.60116e-018   
     length 4.91377   
     axis -180 -30 -90   XYZ
    dof rx ry rz
    limits (-60.0 90.0)
           (-90.0 90.0)
           (-90.0 90.0)
  end
  begin
     id 19
     name lradius
     direction 1 -4.48989e-011 -8.93847e-027   
     length 3.00291   
     axis -180 -30 -90   XYZ
    dof rx
    limits (-10.0 170.0)
  end
  begin
     id 20
     name lwrist
     direction 1 -4.48932e-011 -7.31504e-027   
     length 1.50145   
     axis 5.74121e-015 90 90   XYZ
    dof ry
    limits (-180.0 0.0)
 end
  begin
     id 21 
     name lhand
     direction 1 -4.48971e-011 -1.46301e-026   
     length 0.450922   
     axis 9.33524e-015 90 90   XYZ
    dof rx rz
    limits (-90.0 90.0)
           (-45.0 45.0)
  end
  begin
     id 22 
     name lfingers
     direction 1 -4.49039e-011 -2.92602e-026   
     length 0.363545   
     axis 1.86705e-014 90 90   XYZ
    dof rx
    limits (0.0 90.0)
  end
  begin
     id 23
     name lthumb
     direction 0.707107 -6.34941e-011 0.707107   
     length 0.52198   
     axis -90 45 2.85299e-015   XYZ
    dof rx rz
    limits (-45.0 45.0)
           (-45.0 45.0)
  end
  begin
     id 24 
     name rclavicle
     direction -0.825079 0.56158 -0.0622297   
     length 3.39909  
     axis 0 0 0   XYZ 
    dof ry rz
    limits (-10.0 20.0)
           (-20.0 0.0)
  end
  begin
     id 25 
     name rhumerus
     direction -1 -4.48965e-011 1.61691e-027  
     length 4.86725   
     axis -180 30 90   XYZ
    dof rx ry rz
    limits (-90.0 60.0)
           (-90.0 90.0)
           (-90.0 90.0)
  end
  begin
     id 26 
     name rradius
     direction -1 -4.48964e-011 -2.25776e-027   
     length 3.17144   
     axis -180 30 90   XYZ
    dof rx
    limits (-10.0 170.0)
  end
  begin
     id 27 
     name rwrist
     direction -1 -4.48961e-011 -7.31504e-027   
     length 1.58572   
     axis 5.74121e-015 -90 -90   XYZ
    dof ry
    limits (-180.0 0.0)
  end
  begin
     id 28
     name rhand
     direction -1 -4.49013e-011 -1.46301e-026   
     length 0.419368   
     axis 9.33524e-015 -90 -90   XYZ
    dof rx rz
    limits (-90.0 90.0)
           (-45.0 45.0)
  end
  begin
     id 29
     name rfingers
     direction -1 -4.489e-011 -2.92602e-026   
     length 0.338105   
     axis 1.86705e-014 -90 -90   XYZ
    dof rx
    limits (0.0 90.0)
  end
  begin
     id 30
     name rthumb
     direction -0.707107 -6.35022e-011 0.707107   
     length 0.485453   
     axis -90 -45 -2.85299e-015   XYZ
    dof rx rz
    limits (-45.0 45.0)
           (-45.0 45.0)
  end
:hierarchy
  begin
    root lhipjoint rhipjoint lowerback
    lhipjoint lfemur
    lfemur ltibia
    ltibia lfoot
    lfoot ltoes
    rhipjoint rfemur
    rfemur rtibia
    rtibia rfoot
    rfoot rtoes
    lowerback upperback
    upperback thorax
    thorax lowerneck lclavicle rclavicle
    lowerneck upperneck
    upperneck head
    lclavicle lhumerus
    lhumerus lradius
    lradius lwrist
    lwrist lhand lthumb
    lhand lfingers
    rclavicle rhumerus
    rhumerus rradius
    rradius rwrist
    rwrist rhand rthumb
    rhand rfingers
  end

#!OML:ASF H:\Swim 2\Project 1\Capture day 1\Session 1\male.ASF
:FULLY-SPECIFIED
:DEGREES
858
root 8.18386 9.87683 11.6936 92.1066 -0.841084 -4.36766
lowerback -0.0156853 -9.43104 -5.69178
upperback -5.18512 -12.9923 0.629818
thorax -4.01842 -6.33569 4.04131
lowerneck -19.3176 6.3448 -4.43775
upperneck 25.3002 10.6646 -1.93637
head 11.312 3.99106 1.60783
rclavicle -3.49861e-014 -7.95139e-016
rhumerus -49.3981 33.263 -49.9936
rradius 40.981
rwrist -23.7694
rhand -16.7434 8.66999
rfingers 7.12502
rthumb 9.48296 -21.0966
lclavicle -3.49861e-014 -7.95139e-016
lhumerus 66.4278 24.149 9.11642
lradius 32.9993
lwrist 9.99877
lhand -36.1485 -11.141
lfingers 7.12502
lthumb -9.25312 18.636
rfemur -25.4393 7.00251 25.0873
rtibia 32.2368
rfoot 42.4775 6.62358
rtoes 20.2525
lfemur -32.4118 -9.12361 -16.2747
ltibia 31.5266
lfoot -4.70436 18.8759
ltoes 1.37417
859
root 8.18615 9.88647 11.6888 91.9821 -0.893576 -4.81787
lowerback 0.092528 -9.4443 -5.80396
upperback -5.17057 -13.0205 0.583497
thorax -4.0481 -6.34363 4.06967
lowerneck -19.0704 6.51385 -4.13015
upperneck 25.0293 10.7609 -1.91487
head 11.1742 4.08414 1.56331
rclavicle -8.90555e-014 -9.54166e-015
rhumerus -46.956 31.9322 -45.9747
rradius 40.5812
rwrist -24.0581
rhand -15.9477 8.12337
rfingers 7.12502
rthumb 10.2506 -21.6069
lclavicle -8.90555e-014 -9.54166e-015
lhumerus 66.5009 24.6456 9.86728
lradius 32.8738
lwrist 9.40227
lhand -36.177 -11.3093
lfingers 7.12502
lthumb -9.2806 18.4664
rfemur -24.9906 7.07573 25.0376
rtibia 32.9291
rfoot 43.7255 6.96257
rtoes 20.5469
lfemur -32.6485 -9.5007 -16.0454
ltibia 30.9083
lfoot -4.89855 19.8493
ltoes 1.88957
860
root 8.19129 9.89556 11.6837 91.8826 -0.955144 -5.35407
lowerback 0.163742 -9.44535 -5.88685
upperback -5.16313 -13.0297 0.542509
thorax -4.07142 -6.34371 4.08286
lowerneck -18.8249 6.69266 -3.82936
upperneck 24.7703 10.8765 -1.89577
head 11.042 4.18345 1.52186
rclavicle 0 7.95139e-016
rhumerus -44.3823 30.3072 -41.9185
rradius 40.265
rwrist -24.46
rhand -15.0424 7.51234
rfingers 7.12502
rthumb 11.1238 -22.1728
lclavicle 0 7.95139e-016
lhumerus 66.6065 25.1646 10.7109
lradius 32.7111
lwrist 8.99808
lhand -36.2029 -11.391
lfingers 7.12502
lthumb -9.30559 18.3836
rfemur -24.6269 7.15176 24.9603
rtibia 33.4425
rfoot 44.8191 7.30974
rtoes 20.9239
lfemur -32.8168 -9.79658 -15.8567
ltibia 30.3933
lfoot -5.06143 20.6042
ltoes 2.16026
861
root 8.19924 9.9038 11.6784 91.7888 -1.02138 -5.95349
lowerback 0.221833 -9.43813 -5.94668
upperback -5.15278 -13.026 0.50784
thorax -4.08894 -6.33844 4.08819
lowerneck -18.5629 6.87105 -3.5318
upperneck 24.4694 10.9924 -1.88006
head 10.8924 4.28421 1.47765
rclavicle -1.87653e-013 0
rhumerus -41.7632 28.422 -37.9369
rradius 40.0767
rwrist -25.0825
rhand -14.2151 6.81913
rfingers 7.12502
rthumb 11.9217 -22.8214
lclavicle -1.87653e-013 0
lhumerus 66.7377 25.709 11.6067
lradius 32.512
lwrist 8.82947
lhand -36.2514 -11.3917
lfingers 7.12502
lthumb -9.35235 18.3808
rfemur -24.3243 7.2193 24.8626
rtibia 33.7389
rfoot 45.6564 7.65661
rtoes 21.4603
lfemur -32.8943 -10.0016 -15.7264
ltibia 29.9911
lfoot -5.1722 21.1421
ltoes 2.16027
862
root 8.20975 9.91076 11.6725 91.6952 -1.08521 -6.58518
lowerback 0.280066 -9.42644 -5.98828
upperback -5.14 -13.0151 0.483913
thorax -4.10596 -6.33027 4.09491
lowerneck -18.2999 7.04772 -3.23611
upperneck 24.1446 11.1094 -1.8701
head 10.7356 4.38531 1.43092
rclavicle 3.18055e-015 3.73715e-014
rhumerus -39.1654 26.2934 -34.1041
rradius 40.0296
rwrist -25.9437
rhand -13.5837 6.0942
rfingers 7.12502
rthumb 12.5305 -23.5101
lclavicle 3.18055e-015 3.73715e-014
lhumerus 66.9232 26.2698 12.5967
lradius 32.2591
lwrist 8.84182
lhand -36.3292 -11.3489
lfingers 7.12502
lthumb -9.4275 18.4202
rfemur -24.0712 7.27067 24.752
rtibia 33.7956
rfoot 46.1835 7.93551
rtoes 22.1129
lfemur -32.8782 -10.1111 -15.6658
ltibia 29.7054
lfoot -5.24627 21.4591
ltoes 1.95635
863
root 8.2224 9.91595 11.6656 91.6142 -1.14937 -7.2187
lowerback 0.329053 -9.41397 -6.02349
upperback -5.12901 -13.0021 0.471367
thorax -4.11861 -6.32145 4.10817
lowerneck -18.0393 7.22162 -2.93077
upperneck 23.7996 11.2253 -1.87387
head 10.575 4.48557 1.37712
rclavicle 8.26944e-014 1.03368e-014
rhumerus -36.6483 23.9613 -30.4761
rradius 40.1331
rwrist -27.0297
rhand -13.2134 5.4117
rfingers 7.12502
rthumb 12.8875 -24.1704
lclavicle 8.26944e-014 1.03368e-014
lhumerus 67.1741 26.8359 13.6607
lradius 31.9334
lwrist 9.00636
lhand -36.4714 -11.2926
lfingers 7.12502
lthumb -9.56463 18.4703
rfemur -23.885 7.3011 24.6261
rtibia 33.6122
rfoot 46.428 8.13165
rtoes 22.7907
lfemur -32.7898 -10.1061 -15.695
ltibia 29.5401
lfoot -5.25589 21.5288
ltoes 1.69345
864
root 8.23692 9.91925 11.6574 91.5256 -1.20415 -7.82887
lowerback 0.393372 -9.40126 -6.05353
upperback -5.11492 -12.989 0.471024
thorax -4.13477 -6.31234 4.13348
lowerneck -17.7871 7.38956 -2.62205
upperneck 23.4439 11.3359 -1.88127
head 10.4143 4.58319 1.32078
rclavicle -3.18055e-015 4.77083e-015
rhumerus -34.2417 21.4576 -27.0799
rradius 40.3837
rwrist -28.2809
rhand -13.0448 4.82771
rfingers 7.12502
rthumb 13.05 -24.7441
lclavicle -3.18055e-015 4.77083e-015
lhumerus 67.5 27.3976 14.79
lradius 31.5114
lwrist 9.26811
lhand -36.6994 -11.292
lfingers 7.12502
lthumb -9.78465 18.4607
rfemur -23.7524 7.30461 24.4987
rtibia 33.2067
rfoot 46.3955 8.24565
rtoes 23.3591
lfemur -32.6136 -9.98951 -15.8146
ltibia 29.496
lfoot -5.25643 21.3639
ltoes 1.29504
865
root 8.25284 9.92033 11.6469 91.4626 -1.25206 -8.39291
lowerback 0.436955 -9.39089 -6.08147
upperback -5.10648 -12.9776 0.482354
thorax -4.14291 -6.30461 4.16599
lowerneck -17.5679 7.55166 -2.30617
upperneck 23.122 11.4427 -1.88743
head 10.2741 4.67699 1.26553
rclavicle -2.22639e-014 2.46493e-014
rhumerus -31.9809 18.861 -23.9419
rradius 40.7852
rwrist -29.6181
rhand -13.0814 4.37287
rfingers 7.12502
rthumb 13.0147 -25.2012
lclavicle -2.22639e-014 2.46493e-014
lhumerus 67.9106 27.9403 15.9678
lradius 30.9671
lwrist 9.53488
lhand -37.0408 -11.3679
lfingers 7.12502
lthumb -10.114 18.369
rfemur -23.7172 7.29153 24.3645
rtibia 32.6153
rfoot 46.1245 8.23756
rtoes 23.9595
lfemur -32.4003 -9.76767 -16.0211
ltibia 29.5701
lfoot -5.19608 20.9497
ltoes 0.905986
866
root 8.27005 9.91934 11.6349 91.4215 -1.28248 -8.90938
lowerback 0.464209 -9.37914 -6.09396
upperback -5.10511 -12.963 0.504561
thorax -4.15043 -6.29598 4.19939
lowerneck -17.371 7.70011 -1.99512
upperneck 22.8249 11.5331 -1.87809
head 10.1469 4.7629 1.21575
rclavicle -1.27222e-014 -2.38542e-015
rhumerus -29.8804 16.2836 -21.0622
rradius 41.3525
rwrist -31.0608
rhand -13.2047 4.03101
rfingers 7.12502
rthumb 12.8959 -25.5505
lclavicle -1.27222e-014 -2.38542e-015
lhumerus 68.4012 28.4535 17.1774
lradius 30.2845
lwrist 9.70928
lhand -37.4759 -11.5061
lfingers 7.12502
lthumb -10.5337 18.21
rfemur -23.7902 7.26106 24.2359
rtibia 31.8845
rfoot 45.6391 8.17277
rtoes 24.053
lfemur -32.1507 -9.45845 -16.2929
ltibia 29.7542
lfoot -5.07536 20.2864
ltoes 0.693608
867
root 8.28833 9.91661 11.6217 91.3849 -1.27196 -9.38975
lowerback 0.491437 -9.36007 -6.07071
upperback -5.10266 -12.9368 0.54223
thorax -4.16177 -6.28265 4.23035
lowerneck -17.1919 7.82789 -1.70072
upperneck 22.5402 11.5978 -1.84478
head 10.0259 4.83735 1.17432
rclavicle -6.99722e-014 -2.38542e-015
rhumerus -27.9124 13.773 -18.417
rradius 42.0665
rwrist -32.561
rhand -13.2752 3.74161
rfingers 7.12502
rthumb 12.8279 -25.8442
lclavicle -6.99722e-014 -2.38542e-015
lhumerus 68.9671 28.9398 18.4244
lradius 29.4543
lwrist 9.65595
lhand -37.9799 -11.6316
lfingers 7.12502
lthumb -11.0199 18.0591
rfemur -23.9622 7.24683 24.1373
rtibia 31.0672
rfoot 44.9633 8.08651
rtoes 23.9467
lfemur -31.8505 -9.08856 -16.5876
ltibia 30.0398
lfoot -4.9548 19.4992
ltoes 0.166816
868
root 8.30766 9.91255 11.6082 91.3577 -1.22583 -9.83192
lowerback 0.514462 -9.33285 -6.01338
upperback -5.10113 -12.8978 0.593605
thorax -4.17691 -6.26403 4.25739
lowerneck -17.0383 7.9309 -1.42624
upperneck 22.2783 11.6341 -1.79358
head 9.91622 4.89751 1.13999
rclavicle 1.74931e-013 1.27222e-014
rhumerus -26.0564 11.3669 -15.9753
rradius 42.9091
rwrist -34.0714
rhand -13.2434 3.48996
rfingers 7.12502
rthumb 12.8586 -26.094
lclavicle 1.74931e-013 1.27222e-014
lhumerus 69.5937 29.3937 19.7116
lradius 28.493
lwrist 9.2995
lhand -38.496 -11.6575
lfingers 7.12502
lthumb -11.5177 18.006
rfemur -24.2442 7.26228 24.0576
rtibia 30.2121
rfoot 44.161 7.9838
rtoes 23.6476
lfemur -31.5105 -8.69509 -16.8924
ltibia 30.4114
lfoot -4.86478 18.6397
ltoes -0.609117
